# This file uses centimeters as units for non-parametric coordinates.

mtllib Deck-Side.mtl
g default
v -1.000000 0.000000 1.000000
v 1.000000 0.000000 1.000000
v -1.000000 2.000000 1.000000
v 1.000000 2.000000 1.000000
v -0.999998 1.000000 -0.000000
v 1.000001 0.999642 -0.000000
v 1.000000 2.000000 -0.000000
v -1.000000 2.000000 -0.000000
v -1.000000 0.000000 -0.000000
v 1.000000 0.000000 -0.000000
v -1.000000 2.130864 -0.950005
v -1.000000 2.087284 -1.000000
v 1.000000 2.130864 -0.950005
v 1.000000 2.087284 -1.000000
v -1.000000 1.000654 -1.000000
v -1.000000 1.000654 1.000000
v 1.000000 1.000654 1.000000
v 1.000000 0.998629 -1.000000
vt 0.396147 0.585462
vt 0.396148 0.567763
vt 0.431567 0.567763
vt 0.431569 0.585462
vt 0.384135 0.515259
vt 0.449279 0.550041
vt 0.214234 0.442213
vt 0.449280 0.567745
vt 0.431569 0.550041
vt 0.378437 0.585462
vt 0.378436 0.567752
vt 0.361611 0.587780
vt 0.378436 0.550041
vt 0.396146 0.550041
vt 0.361100 0.515259
vt 0.102930 0.519490
vt 0.097112 0.442213
vt 0.097112 0.386580
vt 0.214234 0.386580
vt 0.218792 0.519490
vt 0.466990 0.567727
vt 0.218792 0.578849
vt 0.466990 0.587008
vt 0.466105 0.587780
vt 0.449280 0.585462
vt 0.102930 0.578849
vt 0.360725 0.567763
vt 0.360726 0.587008
vt 0.340529 0.578849
vt 0.221810 0.578849
vt 0.221810 0.519490
vt 0.340529 0.519490
vt 0.097112 0.445141
vt 0.214234 0.445141
vt 0.161957 0.454181
vt 0.271826 0.454181
vt 0.271826 0.509115
vt 0.161957 0.509096
vt 0.361100 0.469190
vt 0.384135 0.469190
vn 0.000000 0.000000 1.000000
vn 0.000000 0.000000 1.000000
vn 0.000000 0.000000 1.000000
vn 0.000000 0.000000 1.000000
vn 0.000000 1.000000 0.000000
vn 0.000000 1.000000 0.000000
vn 0.000000 1.000000 0.000000
vn 0.000000 1.000000 0.000000
vn -0.000000 0.000000 -1.000000
vn -0.000000 0.000000 -1.000000
vn -0.000000 0.000000 -1.000000
vn -0.000000 0.000000 -1.000000
vn 1.000000 -0.000001 0.000001
vn 1.000000 0.000000 0.000000
vn 1.000000 0.000000 0.000001
vn 1.000000 -0.000001 0.000001
vn -1.000000 -0.000001 -0.000001
vn -1.000000 -0.000000 -0.000001
vn -1.000000 -0.000000 -0.000001
vn -1.000000 -0.000001 -0.000001
vn 0.000000 0.990645 0.136462
vn 0.000000 0.990645 0.136462
vn 0.000000 0.990645 0.136462
vn 0.000000 0.990645 0.136462
vn -0.000000 -0.000000 -1.000000
vn -0.000000 -0.000000 -1.000000
vn -0.000000 -0.000000 -1.000000
vn -0.000000 -0.000000 -1.000000
vn -1.000000 -0.000001 0.000001
vn 0.000000 0.753810 -0.657092
vn 0.000000 0.753810 -0.657092
vn 0.000000 0.753810 -0.657092
vn 0.000000 0.753810 -0.657092
vn -1.000000 0.000001 -0.000001
vn -1.000000 0.000001 -0.000001
vn 0.000000 0.000000 1.000000
vn 0.000000 0.000000 1.000000
vn 1.000000 -0.000000 -0.000001
vn 1.000000 -0.000000 -0.000001
vn 1.000000 0.000000 -0.000001
vn 1.000000 0.000001 0.000000
vn 1.000000 0.000001 0.000001
vn -0.000595 -1.000000 0.000180
vn -0.000595 -1.000000 0.000180
vn -0.000595 -1.000000 0.000180
vn -0.000595 -1.000000 0.000180
vn -1.000000 -0.000000 0.000002
vn -1.000000 -0.000000 0.000002
s 1
g pCube21
usemtl lambert2SG
f 3/1/1 16/2/2 17/3/3 4/4/4
s off
f 7/29/5 8/30/6 3/31/7 4/32/8
f 18/16/9 15/20/10 12/22/11 14/26/12
s 2
f 10/6/13 6/8/14 17/3/15 2/9/16
s 3
f 8/10/17 5/11/18 16/2/19 3/1/20
s off
f 13/7/21 11/17/22 8/18/23 7/19/24
f 10/35/25 9/36/26 5/37/27 6/38/28
s 3
f 11/12/29 5/11/18 8/10/17
s off
f 12/33/30 11/17/31 13/7/32 14/34/33
s 3
f 16/2/19 5/11/18 9/13/34 1/14/35
s 1
f 17/3/3 16/2/2 1/14/36 2/9/37
s 2
f 6/8/14 18/21/38 14/23/39 13/24/40
f 17/3/15 6/8/14 7/25/41 4/4/42
s off
f 5/5/43 15/15/44 18/39/45 6/40/46
s 2
f 6/8/14 13/24/40 7/25/41
s 3
f 15/27/47 5/11/18 11/12/29 12/28/48
