# This file uses centimeters as units for non-parametric coordinates.

mtllib Fence-Side.mtl
g default
v 0.201512 1.829744 1.000000
v 0.228552 1.874415 1.000000
v 0.201512 1.829744 -1.000000
v 0.228552 1.874415 -1.000000
v 0.354759 1.874415 1.000000
v 0.381799 1.829744 1.000000
v 0.381799 1.829744 -1.000000
v 0.354759 1.874415 -1.000000
v 0.228552 1.147946 1.000000
v 0.201512 1.192617 1.000000
v 0.201512 1.192617 -1.000000
v 0.228552 1.147946 -1.000000
v 0.381799 1.192617 1.000000
v 0.354759 1.147946 1.000000
v 0.354759 1.147946 -1.000000
v 0.381799 1.192617 -1.000000
vt 0.434214 0.394313
vt 0.429882 0.398645
vt 0.409665 0.398645
vt 0.405333 0.394313
vt 0.405333 0.471811
vt 0.434214 0.471811
vt 0.429882 0.476142
vt 0.533040 0.175955
vt 0.409665 0.476142
vt 0.533040 0.320838
vt 0.405333 0.332532
vt 0.486885 0.320838
vt 0.486885 0.175955
vt 0.398399 0.320434
vt 0.434214 0.332532
vt 0.409665 0.328200
vt 0.429882 0.328200
vt 0.405333 0.410029
vt 0.409665 0.405698
vt 0.398399 0.176321
vt 0.429882 0.405698
vt 0.415159 0.176321
vt 0.415159 0.320434
vt 0.434214 0.410029
vt 0.429209 0.320838
vt 0.429209 0.175955
vt 0.475363 0.175955
vt 0.475363 0.320838
vt 0.379048 0.176321
vt 0.379048 0.320434
vt 0.362289 0.320434
vt 0.362289 0.176321
vt 0.393321 0.176321
vt 0.393321 0.320434
vt 0.420237 0.176321
vt 0.420237 0.320434
vt 0.384126 0.176321
vt 0.384126 0.320434
vt 0.357210 0.176321
vt 0.357210 0.320434
vn 0.000000 1.000000 0.000000
vn 0.000000 1.000000 0.000000
vn 0.000000 1.000000 0.000000
vn 0.000000 1.000000 0.000000
vn 0.000000 -1.000000 0.000000
vn 0.000000 -1.000000 0.000000
vn 0.000000 -1.000000 0.000000
vn 0.000000 -1.000000 0.000000
vn 1.000000 0.000000 0.000000
vn 1.000000 0.000000 0.000000
vn 1.000000 0.000000 0.000000
vn 1.000000 0.000000 0.000000
vn -1.000000 0.000000 0.000000
vn -1.000000 0.000000 0.000000
vn -1.000000 0.000000 0.000000
vn -1.000000 0.000000 0.000000
vn 0.000000 0.000000 -1.000000
vn 0.000000 0.000000 -1.000000
vn 0.000000 0.000000 -1.000000
vn 0.000000 0.000000 -1.000000
vn 0.000000 0.000000 1.000000
vn 0.000000 0.000000 1.000000
vn 0.000000 0.000000 1.000000
vn 0.000000 0.000000 1.000000
vn -0.855477 0.517841 0.000000
vn -0.855477 0.517841 0.000000
vn -0.855477 0.517841 0.000000
vn -0.855477 0.517841 0.000000
vn 0.855478 0.517840 0.000000
vn 0.855478 0.517840 0.000000
vn 0.855478 0.517840 0.000000
vn 0.855478 0.517840 0.000000
vn -0.855477 -0.517841 0.000000
vn -0.855477 -0.517841 0.000000
vn -0.855477 -0.517841 0.000000
vn -0.855477 -0.517841 0.000000
vn 0.855478 -0.517840 0.000000
vn 0.855478 -0.517840 0.000000
vn 0.855478 -0.517840 0.000000
vn 0.855478 -0.517840 0.000000
vn 0.000000 0.000000 -1.000000
vn 0.000000 0.000000 -1.000000
vn 0.000000 0.000000 -1.000000
vn 0.000000 0.000000 -1.000000
vn 0.000000 0.000000 1.000000
vn 0.000000 0.000000 1.000000
vn 0.000000 0.000000 1.000000
vn 0.000000 0.000000 1.000000
s off
g pCube9 group7
usemtl lambert2SG
f 4/14/1 2/20/2 5/22/3 8/23/4
f 9/29/5 12/30/6 15/31/7 14/32/8
f 13/8/9 16/10/10 7/12/11 6/13/12
f 11/25/13 10/26/14 1/27/15 3/28/16
s 1
f 3/1/17 4/2/18 8/3/19 7/4/20
s 2
f 1/5/21 6/6/22 5/7/23 2/9/24
s off
f 1/33/25 2/20/26 4/14/27 3/34/28
f 5/22/29 6/35/30 7/36/31 8/23/32
f 9/29/33 10/37/34 11/38/35 12/30/36
f 13/39/37 14/32/38 15/31/39 16/40/40
s 1
f 3/1/17 7/4/20 16/11/41 11/15/42
f 11/15/42 16/11/41 15/16/43 12/17/44
s 2
f 10/18/45 9/19/46 14/21/47 13/24/48
f 10/18/45 13/24/48 6/6/22 1/5/21
g default
v 0.201512 4.861323 1.000000
v 0.228552 4.905994 1.000000
v 0.201512 4.861323 -1.000000
v 0.228552 4.905994 -1.000000
v 0.354759 4.905994 1.000000
v 0.381799 4.861323 1.000000
v 0.381799 4.861323 -1.000000
v 0.354759 4.905994 -1.000000
v 0.228552 4.179525 1.000000
v 0.201512 4.224196 1.000000
v 0.201512 4.224196 -1.000000
v 0.228552 4.179525 -1.000000
v 0.381799 4.224196 1.000000
v 0.354759 4.179525 1.000000
v 0.354759 4.179525 -1.000000
v 0.381799 4.224196 -1.000000
vt 0.434214 0.394313
vt 0.429882 0.398645
vt 0.409665 0.398645
vt 0.405333 0.394313
vt 0.405333 0.471811
vt 0.434214 0.471811
vt 0.429882 0.476142
vt 0.533040 0.175955
vt 0.409665 0.476142
vt 0.533040 0.320838
vt 0.405333 0.332532
vt 0.486885 0.320838
vt 0.486885 0.175955
vt 0.398399 0.320434
vt 0.434214 0.332532
vt 0.409665 0.328200
vt 0.429882 0.328200
vt 0.405333 0.410029
vt 0.409665 0.405698
vt 0.398399 0.176321
vt 0.429882 0.405698
vt 0.415159 0.176321
vt 0.415159 0.320434
vt 0.434214 0.410029
vt 0.429209 0.320838
vt 0.429209 0.175955
vt 0.475363 0.175955
vt 0.475363 0.320838
vt 0.379048 0.176321
vt 0.379048 0.320434
vt 0.362289 0.320434
vt 0.362289 0.176321
vt 0.393321 0.176321
vt 0.393321 0.320434
vt 0.420237 0.176321
vt 0.420237 0.320434
vt 0.384126 0.176321
vt 0.384126 0.320434
vt 0.357210 0.176321
vt 0.357210 0.320434
vn 0.000000 1.000000 0.000000
vn 0.000000 1.000000 0.000000
vn 0.000000 1.000000 0.000000
vn 0.000000 1.000000 0.000000
vn 0.000000 -1.000000 0.000000
vn 0.000000 -1.000000 0.000000
vn 0.000000 -1.000000 0.000000
vn 0.000000 -1.000000 0.000000
vn 1.000000 0.000000 0.000000
vn 1.000000 0.000000 0.000000
vn 1.000000 0.000000 0.000000
vn 1.000000 0.000000 0.000000
vn -1.000000 0.000000 0.000000
vn -1.000000 0.000000 0.000000
vn -1.000000 0.000000 0.000000
vn -1.000000 0.000000 0.000000
vn 0.000000 0.000000 -1.000000
vn 0.000000 0.000000 -1.000000
vn 0.000000 0.000000 -1.000000
vn 0.000000 0.000000 -1.000000
vn 0.000000 0.000000 1.000000
vn 0.000000 0.000000 1.000000
vn 0.000000 0.000000 1.000000
vn 0.000000 0.000000 1.000000
vn -0.855477 0.517841 0.000000
vn -0.855477 0.517841 0.000000
vn -0.855477 0.517841 0.000000
vn -0.855477 0.517841 0.000000
vn 0.855478 0.517840 0.000000
vn 0.855478 0.517840 0.000000
vn 0.855478 0.517840 0.000000
vn 0.855478 0.517840 0.000000
vn -0.855477 -0.517841 0.000000
vn -0.855477 -0.517841 0.000000
vn -0.855477 -0.517841 0.000000
vn -0.855477 -0.517841 0.000000
vn 0.855478 -0.517840 0.000000
vn 0.855478 -0.517840 0.000000
vn 0.855478 -0.517840 0.000000
vn 0.855478 -0.517840 0.000000
vn 0.000000 0.000000 -1.000000
vn 0.000000 0.000000 -1.000000
vn 0.000000 0.000000 -1.000000
vn 0.000000 0.000000 -1.000000
vn 0.000000 0.000000 1.000000
vn 0.000000 0.000000 1.000000
vn 0.000000 0.000000 1.000000
vn 0.000000 0.000000 1.000000
s off
g group7 pCube3
usemtl lambert2SG
f 20/54/49 18/60/50 21/62/51 24/63/52
f 25/69/53 28/70/54 31/71/55 30/72/56
f 29/48/57 32/50/58 23/52/59 22/53/60
f 27/65/61 26/66/62 17/67/63 19/68/64
s 1
f 19/41/65 20/42/66 24/43/67 23/44/68
s 2
f 17/45/69 22/46/70 21/47/71 18/49/72
s off
f 17/73/73 18/60/74 20/54/75 19/74/76
f 21/62/77 22/75/78 23/76/79 24/63/80
f 25/69/81 26/77/82 27/78/83 28/70/84
f 29/79/85 30/72/86 31/71/87 32/80/88
s 1
f 19/41/65 23/44/68 32/51/89 27/55/90
f 27/55/90 32/51/89 31/56/91 28/57/92
s 2
f 26/58/93 25/59/94 30/61/95 29/64/96
f 26/58/93 29/64/96 22/46/70 17/45/69
g default
v 0.249691 5.920440 0.955570
v 0.249691 5.920440 0.054471
v 0.249691 5.920440 -0.054471
v 0.249691 5.920440 -0.955570
v -0.235067 5.920440 -0.955570
v -0.235067 5.920440 -0.054471
v -0.235067 5.920440 0.054471
v -0.235067 5.920440 0.955570
v -0.190680 -0.455614 1.000000
v -0.235067 -0.455614 0.955592
v -0.190680 5.920440 1.000000
v 0.249691 -0.455614 0.955592
v 0.205305 -0.455614 1.000000
v 0.205305 5.920440 1.000000
v -0.190680 6.000000 0.955570
v -0.235067 5.955614 0.929519
v 0.205305 6.000000 0.955570
v 0.249691 5.955614 0.929519
v -0.190680 5.920440 -1.000000
v -0.235067 -0.455614 -0.955592
v -0.190680 -0.455614 -1.000000
v 0.205305 5.920440 -1.000000
v 0.205305 -0.455614 -1.000000
v 0.249691 -0.455614 -0.955592
v -0.190680 -0.500000 -0.955570
v 0.205305 -0.500000 -0.955570
v 0.165617 5.920440 0.000000
v 0.201106 5.841871 0.000000
v 0.205305 6.000000 -0.054471
v 0.249691 5.955614 -0.054471
v -0.150992 5.920440 0.000000
v -0.186482 5.841871 0.000000
v -0.190680 6.000000 -0.054471
v -0.235067 5.955614 -0.054471
v -0.150992 -0.500000 0.000000
v -0.186482 -0.455614 0.000000
v -0.190680 -0.500000 0.054471
v -0.235067 -0.455614 0.054471
v 0.201106 -0.455614 0.000000
v 0.165617 -0.500000 0.000000
v 0.205305 -0.500000 0.054471
v 0.249691 -0.455614 0.054471
v 0.205305 6.000000 0.054471
v 0.249691 5.955614 0.054471
v -0.190680 6.000000 0.054471
v -0.235067 5.955614 0.054471
v -0.190680 -0.500000 0.955570
v 0.205305 -0.500000 0.955570
v 0.205305 6.000000 -0.955570
v 0.249691 5.955614 -0.929519
v -0.190680 6.000000 -0.955570
v -0.235067 5.955614 -0.929519
v -0.190680 -0.500000 -0.054471
v -0.235067 -0.455614 -0.054471
v 0.249691 -0.455614 -0.054471
v 0.205305 -0.500000 -0.054471
vt 0.956682 0.012536
vt 0.953468 0.012536
vt 0.953466 0.009324
vt 0.956682 0.473955
vt 0.650695 0.012536
vt 0.455308 0.332649
vt 0.647481 0.012536
vt 0.650696 0.009324
vt 0.953466 0.473955
vt 0.953466 0.479713
vt 0.650696 0.473955
vt 0.647481 0.473955
vt 0.951581 0.476501
vt 0.888256 0.479713
vt 0.888256 0.476501
vt 0.811946 0.473955
vt 0.815162 0.473955
vt 0.652582 0.476501
vt 0.650696 0.479713
vt 0.715907 0.476501
vt 0.715907 0.479713
vt 0.792216 0.473955
vt 0.817047 0.476501
vt 0.789001 0.473955
vt 0.789002 0.012536
vt 0.792216 0.012536
vt 0.789001 0.479713
vt 0.787115 0.476501
vt 0.815162 0.479713
vt 0.811946 0.012536
vt 0.815160 0.012536
vt 0.815162 0.009324
vt 0.880372 0.009324
vt 0.880372 0.012536
vt 0.884314 0.473955
vt 0.789001 0.009324
vt 0.723791 0.012536
vt 0.723791 0.009324
vt 0.884314 0.468270
vt 0.625252 0.013566
vt 0.880372 0.479713
vt 0.483270 0.332649
vt 0.880372 0.476501
vt 0.596596 0.474986
vt 0.884314 0.009324
vt 0.483270 0.335786
vt 0.719849 0.473955
vt 0.884314 0.012536
vt 0.888256 0.009324
vt 0.455308 0.335786
vt 0.888256 0.012536
vt 0.880372 0.473955
vt 0.530309 0.335786
vt 0.888256 0.473955
vt 0.548276 0.474986
vt 0.502347 0.473874
vt 0.502347 0.335786
vt 0.719849 0.468270
vt 0.596596 0.013566
vt 0.576932 0.013566
vt 0.530309 0.473874
vt 0.625252 0.474986
vt 0.502347 0.332649
vt 0.723791 0.476501
vt 0.455308 0.473874
vt 0.530309 0.332649
vt 0.576932 0.474986
vt 0.483270 0.473874
vt 0.458111 0.403262
vt 0.723791 0.479713
vt 0.548276 0.013566
vt 0.480467 0.403262
vt 0.502347 0.470737
vt 0.530309 0.470737
vt 0.483270 0.407108
vt 0.719849 0.012536
vt 0.719849 0.009324
vt 0.715907 0.012536
vt 0.715907 0.009324
vt 0.723791 0.473955
vt 0.715907 0.473955
vt 0.455308 0.470737
vt 0.483270 0.470737
vt 0.530309 0.399415
vt 0.502347 0.399415
vt 0.483270 0.399415
vt 0.455308 0.399415
vt 0.527506 0.403262
vt 0.505150 0.403262
vt 0.502347 0.407108
vt 0.455308 0.407108
vt 0.530309 0.407108
vn -0.577350 -0.577635 0.577066
vn -0.707057 -0.707064 0.011429
vn -0.707057 -0.707064 0.011419
vn -0.707366 0.000001 0.706847
vn -0.707366 0.000001 0.706847
vn -0.707609 0.003010 0.706598
vn -0.707760 0.004929 0.706436
vn -0.684217 0.381723 0.621398
vn -0.684217 0.381723 0.621398
vn 0.707058 -0.707064 0.011429
vn 0.577349 -0.577635 0.577066
vn 0.707058 -0.707064 0.011419
vn 0.707368 0.000001 0.706845
vn 0.707368 0.000001 0.706845
vn 0.707762 0.004929 0.706434
vn 0.707611 0.003010 0.706596
vn 0.684216 0.381723 0.621398
vn 0.684216 0.381723 0.621398
vn -0.707106 0.707107 0.000000
vn -0.707106 0.707107 0.000000
vn -0.707106 0.707107 0.000000
vn -0.707106 0.707107 0.000000
vn 0.707106 0.707107 0.000000
vn 0.707106 0.707107 0.000000
vn 0.707106 0.707107 0.000000
vn 0.707106 0.707107 0.000000
vn -0.707611 0.003010 -0.706596
vn -0.707762 0.004929 -0.706434
vn -0.684216 0.381723 -0.621398
vn -0.684216 0.381723 -0.621398
vn -0.707368 0.000001 -0.706845
vn -0.707368 0.000001 -0.706845
vn -0.707057 -0.707064 -0.011429
vn -0.577350 -0.577635 -0.577066
vn -0.707057 -0.707064 -0.011419
vn 0.707609 0.003010 -0.706598
vn 0.707760 0.004929 -0.706436
vn 0.707366 0.000001 -0.706847
vn 0.707366 0.000001 -0.706847
vn 0.684217 0.381723 -0.621398
vn 0.684217 0.381723 -0.621398
vn 0.577349 -0.577635 -0.577066
vn 0.707058 -0.707064 -0.011429
vn 0.707058 -0.707064 -0.011419
vn -0.709045 -0.703966 0.041064
vn -0.708337 -0.705503 0.022917
vn 0.708337 -0.705503 0.022917
vn 0.709045 -0.703966 0.041064
vn 0.435394 0.282845 0.854653
vn 0.435394 0.282845 0.854653
vn 0.435394 0.282845 0.854653
vn 0.435394 0.282845 0.854653
vn 0.435392 0.282844 -0.854654
vn 0.435392 0.282844 -0.854654
vn 0.435392 0.282844 -0.854654
vn 0.435392 0.282844 -0.854654
vn 0.707106 0.707107 0.000000
vn 0.707106 0.707107 0.000000
vn 0.707106 0.707107 0.000000
vn 0.707106 0.707107 0.000000
vn -0.435394 0.282845 -0.854653
vn -0.435394 0.282845 -0.854653
vn -0.435394 0.282845 -0.854653
vn -0.435394 0.282845 -0.854653
vn -0.435392 0.282844 0.854654
vn -0.435392 0.282844 0.854654
vn -0.435392 0.282844 0.854654
vn -0.435392 0.282844 0.854654
vn -0.707106 0.707107 0.000000
vn -0.707106 0.707107 0.000000
vn -0.707106 0.707107 0.000000
vn -0.707106 0.707107 0.000000
vn -0.743378 -0.668872 -0.000000
vn -0.743377 -0.668872 -0.000000
vn -0.709045 -0.703966 -0.041064
vn -0.708337 -0.705503 -0.022917
vn 0.743377 -0.668872 0.000000
vn 0.743378 -0.668872 0.000000
vn 0.708337 -0.705503 -0.022917
vn 0.709045 -0.703966 -0.041064
vn 0.000000 0.000000 1.000000
vn 0.000000 0.000000 1.000000
vn 0.000000 0.006882 0.999976
vn 0.000000 0.006882 0.999976
vn 0.000000 0.487573 0.873082
vn 0.000000 0.487573 0.873082
vn 0.000000 0.006882 -0.999976
vn 0.000000 0.006882 -0.999976
vn 0.000000 0.000000 -1.000000
vn 0.000000 0.000000 -1.000000
vn 0.000000 -0.998900 0.046892
vn 0.000000 -0.998900 0.046892
vn 0.000000 -0.707456 0.706758
vn 0.000000 -0.707456 0.706758
vn 0.000000 0.564935 0.825135
vn 0.000000 0.564935 0.825135
vn 0.000000 0.564935 0.825135
vn 0.000000 0.564935 0.825135
vn -0.746276 0.000000 0.665637
vn -0.746276 0.000000 0.665636
vn -0.746267 0.000000 0.665647
vn 0.000000 -1.000000 0.000000
vn 0.000000 -1.000000 0.000000
vn 0.000000 -1.000000 0.000000
vn 0.000000 -1.000000 0.000000
vn 0.746276 0.000000 0.665636
vn 0.746276 0.000000 0.665637
vn 0.746267 0.000000 0.665647
vn 0.000000 0.564935 -0.825135
vn 0.000000 0.564935 -0.825135
vn 0.000000 0.564935 -0.825135
vn 0.000000 0.564935 -0.825135
vn -0.746276 0.000000 -0.665636
vn -0.746276 0.000000 -0.665637
vn -0.746267 0.000000 -0.665647
vn 0.000000 -1.000000 0.000000
vn 0.000000 -1.000000 0.000000
vn 0.746267 0.000000 -0.665647
vn 0.746276 0.000000 -0.665637
vn 0.746276 0.000000 -0.665636
vn 0.000000 1.000000 0.000000
vn 0.000000 1.000000 0.000000
vn 0.000000 1.000000 0.000000
vn 0.000000 1.000000 0.000000
vn -1.000000 0.000000 0.000000
vn -1.000000 0.000000 0.000000
vn -1.000000 0.000000 0.000000
vn -1.000000 0.000000 0.000000
vn 0.000000 -0.998900 -0.046892
vn 0.000000 -0.998900 -0.046892
vn 1.000000 0.000000 0.000000
vn 1.000000 -0.000000 0.000000
vn 1.000000 -0.000000 0.000000
vn 1.000000 0.000000 0.000000
vn 0.000000 1.000000 0.000000
vn 0.000000 1.000000 0.000000
vn 0.000000 1.000000 0.000000
vn 0.000000 1.000000 0.000000
vn -1.000000 0.000000 0.000000
vn -1.000000 0.000000 0.000000
vn -1.000000 0.000000 0.000000
vn -1.000000 0.000000 0.000000
vn 1.000000 0.000000 0.000000
vn 1.000000 -0.000000 0.000000
vn 1.000000 -0.000000 0.000000
vn 1.000000 0.000000 0.000000
vn 0.000000 0.487572 -0.873083
vn 0.000000 0.487572 -0.873083
vn 0.000000 -0.707456 -0.706758
vn 0.000000 -0.707456 -0.706758
vn 1.000000 -0.000000 0.000000
vn 1.000000 -0.000000 0.000000
vn 0.746276 0.000000 -0.665636
vn 0.746276 0.000000 -0.665636
vn 0.746276 0.000000 0.665636
vn 0.746276 0.000000 0.665636
vn 1.000000 -0.000000 0.000000
vn 1.000000 -0.000000 0.000000
vn -1.000000 -0.000000 0.000000
vn -1.000000 -0.000000 0.000000
vn -0.746276 0.000000 0.665636
vn -0.746276 0.000000 0.665636
vn -0.746276 0.000000 -0.665636
vn -0.746276 0.000000 -0.665636
vn -1.000000 0.000000 0.000000
vn -1.000000 0.000000 0.000000
s 1
g group7 pCube2
usemtl lambert2SG
f 41/81/97 42/82/98 79/83/99
s 2
f 42/82/100 41/81/101 43/84/102 40/89/103
f 40/89/103 43/84/102 47/90/104 48/93/105
s 3
f 44/85/106 45/87/107 80/88/108
s 4
f 45/87/109 44/85/110 33/91/111 46/92/112
f 46/92/112 33/91/111 50/98/113 49/99/114
s off
f 48/93/115 47/90/116 77/94/117 78/95/118
f 49/99/119 50/98/120 76/100/121 75/101/122
s 5
f 51/96/123 37/97/124 84/103/125 83/109/126
f 37/97/124 51/96/123 53/110/127 52/111/128
s 1
f 52/111/129 53/110/130 57/112/131
s 7
f 54/102/132 36/104/133 56/105/134 55/106/135
f 36/104/133 54/102/132 81/107/136 82/108/137
s 3
f 55/106/138 56/105/139 58/116/140
s 1
f 52/111/129 57/112/131 85/113/141 86/114/142
s 3
f 58/116/140 56/105/139 87/117/143 88/118/144
s off
f 59/127/145 60/138/146 62/144/147 61/150/148
f 60/138/149 59/127/150 75/101/151 76/100/152
f 61/150/153 62/144/154 82/108/155 81/107/156
f 63/115/157 64/119/158 78/95/159 77/94/160
f 64/119/161 63/115/162 65/121/163 66/123/164
f 66/123/165 65/121/166 83/109/167 84/103/168
s 1
f 67/125/169 68/128/170 86/114/142 85/113/141
f 68/128/170 67/125/169 69/129/171 70/131/172
f 70/131/172 69/129/171 79/83/99 42/82/98
s 3
f 71/156/173 72/157/174 88/118/144 87/117/143
f 72/157/174 71/156/173 74/158/175 73/159/176
f 73/159/176 74/158/175 44/85/106 80/88/108
s 9
f 41/139/177 45/120/178 46/142/179 43/124/180
f 43/86/180 46/122/179 49/126/181 47/130/182
s 10
f 51/147/183 54/135/184 55/151/185 53/140/186
s 11
f 79/133/187 80/137/188 45/143/189 41/146/190
s off
f 63/149/191 59/152/192 61/155/193 65/171/194
s 12
f 38/132/195 64/119/196 66/123/197
s 11
f 85/172/198 88/170/199 72/169/200 67/168/201
s 14
f 60/138/202 35/160/203 62/144/204
s off
f 77/167/205 75/166/206 59/152/207 63/149/208
s 15
f 64/119/209 39/134/210 78/95/211
s 11
f 67/168/201 72/169/200 73/165/212 69/164/213
s 16
f 76/100/214 34/161/215 60/138/216
s off
f 65/171/217 61/155/218 81/163/219 83/162/220
s 17
f 37/97/221 38/132/222 66/123/223 84/103/224
s 11
f 57/154/225 58/153/226 88/170/199 85/172/198
s 18
f 62/144/227 35/160/228 36/104/229 82/108/230
s off
f 47/130/231 49/126/232 75/166/233 77/167/234
s 19
f 39/134/235 40/89/236 48/93/237 78/95/238
s 11
f 69/164/213 73/165/212 80/137/188 79/133/187
s 20
f 50/98/239 33/91/240 34/161/241 76/100/242
s 10
f 83/162/243 81/163/244 54/148/184 51/145/183
s 11
f 53/141/245 55/136/246 58/153/226 57/154/225
s 20
f 34/161/241 33/91/240 44/85/247 74/158/248
s 16
f 60/138/216 34/161/215 74/158/249 71/156/250
s 14
f 60/138/202 71/156/251 87/117/252 35/160/203
s 18
f 36/104/229 35/160/228 87/117/253 56/105/254
s 17
f 52/111/255 86/114/256 38/132/222 37/97/221
s 12
f 86/114/257 68/128/258 64/119/196 38/132/195
s 15
f 68/128/259 70/131/260 39/134/210 64/119/209
s 19
f 70/131/261 42/82/262 40/89/236 39/134/235
