# This file uses centimeters as units for non-parametric coordinates.

mtllib Pipe-Corner.mtl
g default
v -1.000000 0.123023 0.071029
v -1.000000 0.123023 -0.071027
v -1.000000 0.000000 -0.142054
v -1.000000 -0.123023 -0.071027
v -1.000000 -0.123023 0.071029
v -1.000000 0.000000 0.142056
v -0.706411 0.000000 0.200455
v -0.679230 -0.123023 0.134834
v -0.624868 -0.123023 0.003592
v -0.597687 0.000000 -0.062029
v -0.624868 0.123023 0.003592
v -0.679230 0.123023 0.134834
v -0.071029 -0.123023 1.000000
v 0.071027 -0.123023 1.000000
v 0.142054 0.000000 1.000000
v 0.071027 0.123023 1.000000
v -0.071029 0.123023 1.000000
v -0.142056 0.000000 1.000000
v -0.200455 0.000000 0.706411
v -0.134834 0.123023 0.679230
v -0.003592 0.123023 0.624868
v 0.062029 0.000000 0.597687
v -0.003592 -0.123023 0.624868
v -0.134834 -0.123023 0.679230
v -0.493816 0.000000 0.292987
v -0.462429 -0.123023 0.229526
v -0.399655 -0.123023 0.102604
v -0.368269 0.000000 0.039142
v -0.399655 0.123023 0.102604
v -0.462429 0.123023 0.229526
v -0.372205 0.000000 0.372205
v -0.322855 -0.123023 0.322855
v -0.224155 -0.123023 0.224155
v -0.174805 0.000000 0.174805
v -0.224155 0.123023 0.224155
v -0.322855 0.123023 0.322855
v -0.292987 0.000000 0.493816
v -0.229526 -0.123023 0.462429
v -0.102604 -0.123023 0.399655
v -0.039142 0.000000 0.368269
v -0.102604 0.123023 0.399655
v -0.229526 0.123023 0.462429
vt 0.772030 0.286072
vt 0.825092 0.286072
vt 0.825092 0.259542
vt 0.772030 0.259542
vt 0.782642 0.286072
vt 0.782642 0.259542
vt 0.793255 0.286072
vt 0.793255 0.259542
vt 0.803867 0.286072
vt 0.803867 0.259542
vt 0.814480 0.286072
vt 0.814480 0.259542
vt 0.814480 0.349866
vt 0.825092 0.349866
vt 0.761418 0.376396
vt 0.814480 0.376396
vt 0.803867 0.349866
vt 0.803867 0.376396
vt 0.793255 0.349866
vt 0.793255 0.376396
vt 0.782642 0.349866
vt 0.782642 0.376396
vt 0.772030 0.349866
vt 0.772030 0.376396
vt 0.825092 0.304043
vt 0.772030 0.304043
vt 0.782642 0.304043
vt 0.793255 0.304043
vt 0.803867 0.304043
vt 0.814480 0.304043
vt 0.825092 0.317969
vt 0.772030 0.317969
vt 0.782642 0.317969
vt 0.793255 0.317969
vt 0.803867 0.317969
vt 0.814480 0.317969
vt 0.825092 0.331895
vt 0.772030 0.331895
vt 0.782642 0.331895
vt 0.793255 0.331895
vt 0.803867 0.331895
vt 0.814480 0.331895
vt 0.761417 0.286072
vt 0.761417 0.259542
vt 0.825092 0.376396
vt 0.761417 0.349866
vt 0.761417 0.331895
vt 0.761417 0.304043
vt 0.761417 0.317969
vn -0.169764 -0.492742 0.853455
vn -0.169764 -0.492742 0.853455
vn -0.169764 -0.492742 0.853455
vn -0.169764 -0.492741 0.853455
vn 0.000000 -1.000000 0.000000
vn 0.000000 -1.000000 0.000000
vn 0.000000 -1.000000 0.000000
vn 0.000000 -1.000000 0.000000
vn 0.169763 -0.492742 -0.853456
vn 0.169763 -0.492742 -0.853456
vn 0.169763 -0.492742 -0.853456
vn 0.169763 -0.492742 -0.853456
vn 0.169763 0.492742 -0.853456
vn 0.169763 0.492741 -0.853456
vn 0.169763 0.492741 -0.853456
vn 0.169763 0.492742 -0.853456
vn 0.000000 1.000000 0.000000
vn 0.000000 1.000000 0.000000
vn 0.000000 1.000000 0.000000
vn 0.000000 1.000000 0.000000
vn -0.169764 0.492742 0.853455
vn -0.169764 0.492742 0.853455
vn -0.169764 0.492742 0.853455
vn -0.169764 0.492742 0.853455
vn -0.830804 0.497717 0.249084
vn -0.832389 0.497505 0.244168
vn -0.853456 0.492741 0.169764
vn -0.853455 0.492741 0.169764
vn 0.000000 1.000000 -0.000000
vn 0.000000 1.000000 -0.000000
vn 0.000000 1.000000 0.000000
vn 0.000000 1.000000 0.000000
vn 0.832890 0.497456 -0.242552
vn 0.834390 0.497234 -0.237805
vn 0.853456 0.492741 -0.169763
vn 0.853456 0.492741 -0.169763
vn 0.834390 -0.497234 -0.237805
vn 0.832890 -0.497457 -0.242552
vn 0.853456 -0.492742 -0.169763
vn 0.853455 -0.492742 -0.169763
vn 0.000000 -1.000000 0.000000
vn 0.000000 -1.000000 0.000000
vn 0.000000 -1.000000 -0.000000
vn 0.000000 -1.000000 -0.000000
vn -0.832388 -0.497505 0.244168
vn -0.830804 -0.497717 0.249084
vn -0.853455 -0.492742 0.169764
vn -0.853455 -0.492742 0.169764
vn -0.769143 -0.497153 0.401569
vn -0.769904 -0.497235 0.400005
vn 0.000000 -1.000000 0.000000
vn 0.000000 -1.000000 0.000000
vn 0.757949 -0.497049 -0.422440
vn 0.759243 -0.497177 -0.419958
vn 0.759243 0.497177 -0.419958
vn 0.757949 0.497049 -0.422440
vn 0.000000 1.000000 -0.000000
vn 0.000000 1.000000 -0.000000
vn -0.769905 0.497235 0.400005
vn -0.769143 0.497152 0.401569
vn -0.346329 -0.499147 0.794297
vn -0.346329 -0.499147 0.794297
vn -0.400005 -0.497235 0.769905
vn -0.401569 -0.497153 0.769143
vn 0.000000 -1.000000 0.000000
vn 0.000000 -1.000000 0.000000
vn 0.000000 -1.000000 0.000000
vn 0.000000 -1.000000 0.000000
vn 0.349189 -0.499165 -0.793033
vn 0.349189 -0.499165 -0.793033
vn 0.419958 -0.497177 -0.759243
vn 0.422440 -0.497049 -0.757949
vn 0.349189 0.499165 -0.793033
vn 0.349189 0.499165 -0.793033
vn 0.422440 0.497049 -0.757949
vn 0.419958 0.497177 -0.759243
vn -0.000000 1.000000 0.000000
vn -0.000000 1.000000 0.000000
vn -0.000000 1.000000 -0.000000
vn -0.000000 1.000000 0.000000
vn -0.346329 0.499148 0.794297
vn -0.346329 0.499148 0.794297
vn -0.401569 0.497153 0.769143
vn -0.400005 0.497235 0.769905
vn -0.612977 -0.498517 0.612977
vn -0.612977 -0.498517 0.612977
vn 0.000000 -1.000000 0.000000
vn 0.000000 -1.000000 0.000000
vn 0.613609 -0.496959 -0.613609
vn 0.613609 -0.496959 -0.613609
vn 0.613609 0.496959 -0.613609
vn 0.613609 0.496959 -0.613609
vn 0.000000 1.000000 -0.000000
vn 0.000000 1.000000 -0.000000
vn -0.612977 0.498517 0.612977
vn -0.612977 0.498517 0.612977
s off
g polySurface14
usemtl lambert3SG
f 8/1/1 7/43/2 6/44/3 5/4/4
f 9/5/5 8/1/6 5/4/7 4/6/8
f 10/7/9 9/5/10 4/6/11 3/8/12
f 11/9/13 10/7/14 3/8/15 2/10/16
f 12/11/17 11/9/18 2/10/19 1/12/20
f 7/2/21 12/11/22 1/12/23 6/3/24
s 1
f 20/13/25 19/14/26 18/45/27 17/16/28
s 2
f 21/17/29 20/13/30 17/16/31 16/18/32
s 3
f 22/19/33 21/17/34 16/18/35 15/20/36
s 4
f 23/21/37 22/19/38 15/20/39 14/22/40
s 5
f 24/23/41 23/21/42 14/22/43 13/24/44
s 6
f 19/46/45 24/23/46 13/24/47 18/15/48
f 37/47/49 38/38/50 24/23/46 19/46/45
s 5
f 38/38/51 39/39/52 23/21/42 24/23/41
s 4
f 39/39/53 40/40/54 22/19/38 23/21/37
s 3
f 40/40/55 41/41/56 21/17/34 22/19/33
s 2
f 41/41/57 42/42/58 20/13/30 21/17/29
s 1
f 42/42/59 37/37/60 19/14/26 20/13/25
s 6
f 7/43/61 8/1/62 26/26/63 25/48/64
s 5
f 8/1/65 9/5/66 27/27/67 26/26/68
s 4
f 9/5/69 10/7/70 28/28/71 27/27/72
s 3
f 10/7/73 11/9/74 29/29/75 28/28/76
s 2
f 11/9/77 12/11/78 30/30/79 29/29/80
s 1
f 12/11/81 7/2/82 25/25/83 30/30/84
s 6
f 25/48/64 26/26/63 32/32/85 31/49/86
s 5
f 26/26/68 27/27/67 33/33/87 32/32/88
s 4
f 27/27/72 28/28/71 34/34/89 33/33/90
s 3
f 28/28/76 29/29/75 35/35/91 34/34/92
s 2
f 29/29/80 30/30/79 36/36/93 35/35/94
s 1
f 30/30/84 25/25/83 31/31/95 36/36/96
s 6
f 31/49/86 32/32/85 38/38/50 37/47/49
s 5
f 32/32/88 33/33/87 39/39/52 38/38/51
s 4
f 33/33/90 34/34/89 40/40/54 39/39/53
s 3
f 34/34/92 35/35/91 41/41/56 40/40/55
s 2
f 35/35/94 36/36/93 42/42/58 41/41/57
s 1
f 36/36/96 31/31/95 37/37/60 42/42/59
