# This file uses centimeters as units for non-parametric coordinates.

mtllib Pipe-Straight.mtl
g default
v 1.000000 0.123023 -0.071028
v 1.000000 0.000000 -0.142056
v 1.000000 -0.123024 -0.071028
v 1.000000 -0.123023 0.071027
v 1.000000 -0.000000 0.142055
v 1.000000 0.123022 0.071027
v -1.000000 0.123023 -0.071028
v -1.000000 0.000000 -0.142056
v -1.000000 -0.123024 -0.071028
v -1.000000 -0.123023 0.071027
v -1.000000 -0.000000 0.142055
v -1.000000 0.123022 0.071027
v -0.794422 -0.123024 -0.071028
v -0.794422 0.000000 -0.142056
v -0.794422 0.123023 -0.071028
v -0.794422 0.123022 0.071027
v -0.794422 -0.000000 0.142055
v -0.794422 -0.123023 0.071027
v -0.721614 -0.123024 -0.071028
v -0.721614 0.000000 -0.142056
v -0.721614 0.123023 -0.071028
v -0.721614 0.123022 0.071027
v -0.721614 -0.000000 0.142055
v -0.721614 -0.123023 0.071027
v -0.731678 -0.163753 -0.094543
v -0.731678 -0.000000 -0.189085
v -0.776896 -0.163753 -0.094543
v -0.776896 -0.000000 -0.189085
v -0.731678 0.163752 -0.094542
v -0.776896 0.163752 -0.094542
v -0.731678 0.163752 0.094542
v -0.776896 0.163752 0.094542
v -0.731678 0.000000 0.189085
v -0.776896 0.000000 0.189085
v -0.731678 -0.163752 0.094542
v -0.776896 -0.163752 0.094542
v 0.690280 -0.123024 -0.071028
v 0.690280 0.000000 -0.142056
v 0.690280 0.123023 -0.071028
v 0.690280 0.123022 0.071027
v 0.690280 -0.000000 0.142055
v 0.690280 -0.123023 0.071027
v 0.758313 -0.123024 -0.071028
v 0.758313 0.000000 -0.142056
v 0.758313 0.123023 -0.071028
v 0.758313 0.123022 0.071027
v 0.758313 -0.000000 0.142055
v 0.758313 -0.123023 0.071027
v 0.742373 -0.172774 -0.099751
v 0.742373 -0.000000 -0.199502
v 0.710724 -0.172774 -0.099751
v 0.710724 -0.000000 -0.199502
v 0.742373 0.172775 -0.099751
v 0.710724 0.172775 -0.099751
v 0.742373 0.172774 0.099751
v 0.710724 0.172774 0.099751
v 0.742373 -0.000001 0.199502
v 0.710724 -0.000001 0.199502
v 0.742373 -0.172774 0.099751
v 0.710724 -0.172774 0.099751
v 0.000000 -0.123023 0.071027
v 0.000000 -0.123024 -0.071028
v 0.000000 0.000000 -0.142056
v 0.000000 0.123023 -0.071028
v 0.000000 0.123022 0.071027
v 0.000000 -0.000000 0.142055
vt 0.885214 0.376705
vt 0.877184 0.376703
vt 0.877184 0.363042
vt 0.885214 0.363042
vt 0.869153 0.376698
vt 0.869154 0.363039
vt 0.861123 0.376700
vt 0.861123 0.363039
vt 0.853093 0.376698
vt 0.853093 0.363040
vt 0.845062 0.376703
vt 0.845062 0.363041
vt 0.837032 0.376705
vt 0.837032 0.363042
vt 0.877184 0.270861
vt 0.869153 0.270860
vt 0.869153 0.259233
vt 0.877184 0.259237
vt 0.885214 0.270858
vt 0.885214 0.259242
vt 0.845062 0.270861
vt 0.837032 0.270858
vt 0.837032 0.259242
vt 0.845063 0.259237
vt 0.853093 0.270860
vt 0.853093 0.259233
vt 0.861123 0.270858
vt 0.861123 0.259241
vt 0.877184 0.274934
vt 0.869153 0.274933
vt 0.869153 0.273012
vt 0.877184 0.273013
vt 0.885214 0.274931
vt 0.885214 0.273009
vt 0.845062 0.274934
vt 0.837032 0.274931
vt 0.837032 0.273009
vt 0.845062 0.273013
vt 0.853093 0.274933
vt 0.853093 0.273012
vt 0.861123 0.274932
vt 0.861123 0.273010
vt 0.877184 0.276968
vt 0.869153 0.276968
vt 0.885214 0.276966
vt 0.845063 0.276968
vt 0.837032 0.276966
vt 0.853093 0.276968
vt 0.861123 0.276968
vt 0.877184 0.356781
vt 0.869153 0.356781
vt 0.869153 0.317756
vt 0.877184 0.317755
vt 0.885214 0.356780
vt 0.885214 0.317754
vt 0.845062 0.356781
vt 0.837032 0.356780
vt 0.837032 0.317754
vt 0.845062 0.317755
vt 0.853093 0.356780
vt 0.853093 0.317756
vt 0.861123 0.356779
vt 0.861123 0.317757
vt 0.877184 0.360585
vt 0.869153 0.360584
vt 0.869154 0.359310
vt 0.877184 0.359312
vt 0.885214 0.360582
vt 0.885214 0.359308
vt 0.845062 0.360586
vt 0.837032 0.360582
vt 0.837032 0.359308
vt 0.845062 0.359311
vt 0.853093 0.360583
vt 0.853093 0.359310
vt 0.861123 0.360581
vt 0.861123 0.359309
vn 0.000000 0.500000 -0.866025
vn 0.000000 0.500000 -0.866025
vn 0.000000 0.500000 -0.866025
vn 0.000000 0.500000 -0.866025
vn 0.000000 -0.500001 -0.866025
vn 0.000000 -0.500001 -0.866025
vn 0.000000 -0.500001 -0.866025
vn 0.000000 -0.500001 -0.866025
vn 0.000000 -1.000000 0.000001
vn 0.000000 -1.000000 0.000001
vn 0.000000 -1.000000 0.000001
vn 0.000000 -1.000000 0.000001
vn 0.000000 -0.500000 0.866025
vn 0.000000 -0.500000 0.866025
vn 0.000000 -0.500000 0.866025
vn 0.000000 -0.500000 0.866025
vn 0.000000 0.499999 0.866026
vn 0.000000 0.499999 0.866026
vn 0.000000 0.499999 0.866026
vn 0.000000 0.499999 0.866026
vn 0.000000 1.000000 0.000001
vn 0.000000 1.000000 0.000001
vn 0.000000 1.000000 0.000001
vn 0.000000 1.000000 0.000001
vn 0.000000 -0.500001 -0.866025
vn 0.000000 -0.500001 -0.866025
vn 0.000000 -0.500001 -0.866025
vn 0.000000 -0.500001 -0.866025
vn 0.000000 0.500000 -0.866025
vn 0.000000 0.500000 -0.866025
vn 0.000000 0.500000 -0.866025
vn 0.000000 0.500000 -0.866025
vn 0.000000 1.000000 0.000001
vn 0.000000 1.000000 0.000001
vn 0.000000 1.000000 0.000001
vn 0.000000 1.000000 0.000001
vn 0.000000 0.499999 0.866026
vn 0.000000 0.499999 0.866026
vn 0.000000 0.499999 0.866026
vn 0.000000 0.499999 0.866026
vn 0.000000 -0.500000 0.866025
vn 0.000000 -0.500000 0.866025
vn 0.000000 -0.500000 0.866025
vn 0.000000 -0.500000 0.866025
vn 0.000000 -1.000000 0.000001
vn 0.000000 -1.000000 0.000001
vn 0.000000 -1.000000 0.000001
vn 0.000000 -1.000000 0.000001
vn 0.000000 -0.499999 -0.866026
vn 0.000000 -0.499999 -0.866026
vn 0.000000 -0.499999 -0.866026
vn 0.000000 -0.499999 -0.866026
vn 0.000000 0.500000 -0.866025
vn 0.000000 0.500000 -0.866025
vn 0.000000 0.500000 -0.866025
vn 0.000000 0.500000 -0.866025
vn 0.000000 1.000000 -0.000001
vn 0.000000 1.000000 -0.000001
vn 0.000000 1.000000 -0.000001
vn 0.000000 1.000000 -0.000001
vn 0.000000 0.499999 0.866026
vn 0.000000 0.499999 0.866026
vn 0.000000 0.499999 0.866026
vn 0.000000 0.499999 0.866026
vn 0.000000 -0.500000 0.866025
vn 0.000000 -0.500000 0.866025
vn 0.000000 -0.500000 0.866025
vn 0.000000 -0.500000 0.866025
vn 0.000000 -1.000000 0.000001
vn 0.000000 -1.000000 0.000001
vn 0.000000 -1.000000 0.000001
vn 0.000000 -1.000000 0.000001
vn 0.977860 0.000001 -0.209259
vn 0.977861 -0.181222 -0.104628
vn 0.977861 -0.181222 -0.104628
vn 0.977860 -0.000001 -0.209259
vn -0.937051 -0.302410 -0.174596
vn -0.937050 0.000001 -0.349195
vn -0.937050 -0.000002 -0.349195
vn -0.937051 -0.302410 -0.174596
vn 0.977860 0.181223 -0.104629
vn 0.977860 0.000001 -0.209259
vn 0.977860 -0.000001 -0.209259
vn 0.977860 0.181224 -0.104629
vn -0.937050 0.000001 -0.349195
vn -0.937050 0.302411 -0.174598
vn -0.937050 0.302413 -0.174596
vn -0.937050 -0.000002 -0.349195
vn 0.977861 0.181222 0.104628
vn 0.977860 0.181223 -0.104629
vn 0.977860 0.181224 -0.104629
vn 0.977861 0.181222 0.104628
vn -0.937050 0.302411 -0.174598
vn -0.937051 0.302409 0.174597
vn -0.937051 0.302410 0.174596
vn -0.937050 0.302413 -0.174596
vn 0.977861 -0.000000 0.209257
vn 0.977861 0.181222 0.104628
vn 0.977861 0.181222 0.104628
vn 0.977861 0.000000 0.209257
vn -0.937051 0.302409 0.174597
vn -0.937051 -0.000000 0.349193
vn -0.937051 0.000000 0.349193
vn -0.937051 0.302410 0.174596
vn 0.977861 -0.181221 0.104629
vn 0.977861 -0.000000 0.209257
vn 0.977861 0.000000 0.209257
vn 0.977861 -0.181222 0.104628
vn -0.937051 -0.000000 0.349193
vn -0.937051 -0.302410 0.174597
vn -0.937051 -0.302410 0.174596
vn -0.937051 0.000000 0.349193
vn 0.977861 -0.181222 -0.104628
vn 0.977861 -0.181221 0.104629
vn 0.977861 -0.181222 0.104628
vn 0.977861 -0.181222 -0.104628
vn -0.937051 -0.302410 0.174597
vn -0.937051 -0.302410 -0.174596
vn -0.937051 -0.302410 -0.174596
vn -0.937051 -0.302410 0.174596
vn 0.000000 -0.500001 -0.866025
vn 0.000000 -0.500001 -0.866025
vn 0.000000 -0.500001 -0.866025
vn 0.000000 -0.500001 -0.866025
vn 0.000000 0.500000 -0.866025
vn 0.000000 0.500000 -0.866025
vn 0.000000 0.500000 -0.866025
vn 0.000000 0.500000 -0.866025
vn 0.000000 1.000000 0.000001
vn 0.000000 1.000000 0.000001
vn 0.000000 1.000000 0.000001
vn 0.000000 1.000000 0.000001
vn 0.000000 0.499999 0.866026
vn 0.000000 0.499999 0.866026
vn 0.000000 0.499999 0.866026
vn 0.000000 0.499999 0.866026
vn 0.000000 -0.500000 0.866025
vn 0.000000 -0.500000 0.866025
vn 0.000000 -0.500000 0.866025
vn 0.000000 -0.500000 0.866025
vn 0.000000 -1.000000 0.000001
vn 0.000000 -1.000000 0.000001
vn 0.000000 -1.000000 0.000001
vn 0.000000 -1.000000 0.000001
vn 0.000000 -0.500001 -0.866025
vn 0.000000 -0.500001 -0.866025
vn 0.000000 -0.500001 -0.866025
vn 0.000000 -0.500001 -0.866025
vn 0.000000 0.500000 -0.866025
vn 0.000000 0.500000 -0.866025
vn 0.000000 0.500000 -0.866025
vn 0.000000 0.500000 -0.866025
vn 0.000000 1.000000 0.000001
vn 0.000000 1.000000 0.000001
vn 0.000000 1.000000 0.000001
vn 0.000000 1.000000 0.000001
vn 0.000000 0.499999 0.866026
vn 0.000000 0.499999 0.866026
vn 0.000000 0.499999 0.866026
vn 0.000000 0.499999 0.866026
vn 0.000000 -0.500000 0.866025
vn 0.000000 -0.500000 0.866025
vn 0.000000 -0.500000 0.866025
vn 0.000000 -0.500000 0.866025
vn 0.000000 -1.000000 0.000001
vn 0.000000 -1.000000 0.000001
vn 0.000000 -1.000000 0.000001
vn 0.000000 -1.000000 0.000001
vn 0.963596 0.000000 -0.267363
vn 0.963596 -0.231542 -0.133681
vn 0.963596 -0.231542 -0.133681
vn 0.963596 -0.000000 -0.267363
vn -0.942121 -0.290354 -0.167636
vn -0.942121 0.000000 -0.335274
vn -0.942121 -0.000000 -0.335273
vn -0.942121 -0.290355 -0.167635
vn 0.963596 0.231543 -0.133682
vn 0.963596 0.000000 -0.267363
vn 0.963596 -0.000000 -0.267363
vn 0.963596 0.231543 -0.133681
vn -0.942121 0.000000 -0.335274
vn -0.942121 0.290355 -0.167636
vn -0.942121 0.290355 -0.167636
vn -0.942121 -0.000000 -0.335273
vn 0.963596 0.231542 0.133681
vn 0.963596 0.231543 -0.133682
vn 0.963596 0.231543 -0.133681
vn 0.963596 0.231542 0.133682
vn -0.942121 0.290355 -0.167636
vn -0.942121 0.290354 0.167636
vn -0.942121 0.290354 0.167637
vn -0.942121 0.290355 -0.167636
vn 0.963596 0.000000 0.267362
vn 0.963596 0.231542 0.133681
vn 0.963596 0.231542 0.133682
vn 0.963596 0.000000 0.267362
vn -0.942121 0.290354 0.167636
vn -0.942122 0.000000 0.335272
vn -0.942122 0.000000 0.335272
vn -0.942121 0.290354 0.167637
vn 0.963596 -0.231542 0.133681
vn 0.963596 0.000000 0.267362
vn 0.963596 0.000000 0.267362
vn 0.963596 -0.231541 0.133681
vn -0.942122 0.000000 0.335272
vn -0.942122 -0.290354 0.167636
vn -0.942122 -0.290354 0.167636
vn -0.942122 0.000000 0.335272
vn 0.963596 -0.231542 -0.133681
vn 0.963596 -0.231542 0.133681
vn 0.963596 -0.231541 0.133681
vn 0.963596 -0.231542 -0.133681
vn -0.942122 -0.290354 0.167636
vn -0.942121 -0.290354 -0.167636
vn -0.942121 -0.290355 -0.167635
vn -0.942122 -0.290354 0.167636
vn 0.000000 -1.000000 0.000001
vn 0.000000 -1.000000 0.000001
vn 0.000000 -1.000000 0.000001
vn 0.000000 -1.000000 0.000001
vn 0.000000 -0.500001 -0.866025
vn 0.000000 -0.500001 -0.866025
vn 0.000000 -0.500001 -0.866025
vn 0.000000 -0.500001 -0.866025
vn 0.000000 0.500000 -0.866025
vn 0.000000 0.500000 -0.866025
vn 0.000000 0.500000 -0.866025
vn 0.000000 0.500000 -0.866025
vn 0.000000 1.000000 0.000001
vn 0.000000 1.000000 0.000001
vn 0.000000 1.000000 0.000001
vn 0.000000 1.000000 0.000001
vn 0.000000 0.499999 0.866026
vn 0.000000 0.499999 0.866026
vn 0.000000 0.499999 0.866026
vn 0.000000 0.499999 0.866026
vn 0.000000 -0.500000 0.866025
vn 0.000000 -0.500000 0.866025
vn 0.000000 -0.500000 0.866025
vn 0.000000 -0.500000 0.866025
s off
g polySurface13 Pipes2:Mesh
usemtl lambert3SG
f 1/1/1 2/2/2 44/3/3 45/4/4
f 2/2/5 3/5/6 43/6/7 44/3/8
f 3/5/9 4/7/10 48/8/11 43/6/12
f 4/7/13 5/9/14 47/10/15 48/8/16
f 5/9/17 6/11/18 46/12/19 47/10/20
f 6/11/21 1/13/22 45/14/23 46/12/24
f 14/15/25 13/16/26 9/17/27 8/18/28
f 15/19/29 14/15/30 8/18/31 7/20/32
f 16/21/33 15/22/34 7/23/35 12/24/36
f 17/25/37 16/21/38 12/24/39 11/26/40
f 18/27/41 17/25/42 11/26/43 10/28/44
f 13/16/45 18/27/46 10/28/47 9/17/48
f 26/29/49 25/30/50 27/31/51 28/32/52
f 29/33/53 26/29/54 28/32/55 30/34/56
f 31/35/57 29/36/58 30/37/59 32/38/60
f 33/39/61 31/35/62 32/38/63 34/40/64
f 35/41/65 33/39/66 34/40/67 36/42/68
f 25/30/69 35/41/70 36/42/71 27/31/72
f 20/43/73 19/44/74 25/30/75 26/29/76
f 13/16/77 14/15/78 28/32/79 27/31/80
f 21/45/81 20/43/82 26/29/83 29/33/84
f 14/15/85 15/19/86 30/34/87 28/32/88
f 22/46/89 21/47/90 29/36/91 31/35/92
f 15/22/93 16/21/94 32/38/95 30/37/96
f 23/48/97 22/46/98 31/35/99 33/39/100
f 16/21/101 17/25/102 34/40/103 32/38/104
f 24/49/105 23/48/106 33/39/107 35/41/108
f 17/25/109 18/27/110 36/42/111 34/40/112
f 19/44/113 24/49/114 35/41/115 25/30/116
f 18/27/117 13/16/118 27/31/119 36/42/120
f 38/50/121 37/51/122 62/52/123 63/53/124
f 39/54/125 38/50/126 63/53/127 64/55/128
f 40/56/129 39/57/130 64/58/131 65/59/132
f 41/60/133 40/56/134 65/59/135 66/61/136
f 42/62/137 41/60/138 66/61/139 61/63/140
f 37/51/141 42/62/142 61/63/143 62/52/144
f 50/64/145 49/65/146 51/66/147 52/67/148
f 53/68/149 50/64/150 52/67/151 54/69/152
f 55/70/153 53/71/154 54/72/155 56/73/156
f 57/74/157 55/70/158 56/73/159 58/75/160
f 59/76/161 57/74/162 58/75/163 60/77/164
f 49/65/165 59/76/166 60/77/167 51/66/168
f 44/3/169 43/6/170 49/65/171 50/64/172
f 37/51/173 38/50/174 52/67/175 51/66/176
f 45/4/177 44/3/178 50/64/179 53/68/180
f 38/50/181 39/54/182 54/69/183 52/67/184
f 46/12/185 45/14/186 53/71/187 55/70/188
f 39/57/189 40/56/190 56/73/191 54/72/192
f 47/10/193 46/12/194 55/70/195 57/74/196
f 40/56/197 41/60/198 58/75/199 56/73/200
f 48/8/201 47/10/202 57/74/203 59/76/204
f 41/60/205 42/62/206 60/77/207 58/75/208
f 43/6/209 48/8/210 59/76/211 49/65/212
f 42/62/213 37/51/214 51/66/215 60/77/216
f 62/52/217 61/63/218 24/49/219 19/44/220
f 63/53/221 62/52/222 19/44/223 20/43/224
f 64/55/225 63/53/226 20/43/227 21/45/228
f 65/59/229 64/58/230 21/47/231 22/46/232
f 66/61/233 65/59/234 22/46/235 23/48/236
f 61/63/237 66/61/238 23/48/239 24/49/240
